<svg width="23" height="24" viewBox="0 0 23 24" fill="none" xmlns="http://www.w3.org/2000/svg">
<path fill-rule="evenodd" clip-rule="evenodd" d="M8.60284 15.059C12.2958 15.059 17.2057 15.5212 17.2057 19.5199C17.2057 23.7321 11.4845 23.9848 9.03049 24L8.1395 24C5.52288 23.9849 0 23.7336 0 19.5451C0 15.3282 5.72113 15.0752 8.17518 15.06L8.47002 15.059C8.51598 15.059 8.56028 15.059 8.60284 15.059ZM8.60284 16.9482C5.45383 16.9482 1.69972 17.3978 1.69972 19.5451C1.69972 21.2478 4.02267 22.1118 8.60284 22.1118C13.183 22.1118 15.506 21.239 15.506 19.5199C15.506 17.8134 13.183 16.9482 8.60284 16.9482ZM18.9311 14.4707C21.9974 14.9808 22.6399 16.5589 22.6399 17.7918C22.6399 18.71 22.283 19.953 20.5798 20.6696C20.4813 20.7112 20.3793 20.7314 20.2784 20.7314C19.9351 20.7314 19.6121 20.4984 19.4841 20.1218C19.3175 19.6344 19.5385 19.0878 19.977 18.9039C20.9402 18.4984 20.9402 18.0034 20.9402 17.7918C20.9402 17.0777 20.1798 16.5891 18.6807 16.341C18.2161 16.2629 17.8954 15.7818 17.9645 15.2667C18.0348 14.7503 18.4756 14.404 18.9311 14.4707ZM8.60284 0C11.8108 0 14.4216 2.90173 14.4216 6.46717C14.4283 8.18504 13.8289 9.80718 12.7366 11.0288C11.6465 12.2517 10.1904 12.9281 8.64136 12.9343H8.60284C5.39377 12.9343 2.783 10.0326 2.783 6.46717C2.783 2.90173 5.39377 0 8.60284 0ZM16.6341 1.41535C18.8607 1.82088 20.4766 3.93799 20.4766 6.44803C20.4721 8.97319 18.7758 11.1419 16.5299 11.492C16.4902 11.4983 16.4505 11.5009 16.4109 11.5009C15.9939 11.5009 15.6302 11.1596 15.5701 10.6873C15.5055 10.1709 15.8285 9.69232 16.293 9.62054C17.7072 9.40014 18.7746 8.03617 18.7769 6.44677C18.7769 4.86745 17.7593 3.53497 16.3599 3.28056C15.8964 3.19492 15.5826 2.71004 15.6585 2.19493C15.7344 1.67983 16.1729 1.33348 16.6341 1.41535ZM8.60284 1.88915C6.33088 1.88915 4.48272 3.94328 4.48272 6.46717C4.48272 8.99107 6.33088 11.0452 8.60284 11.0452H8.63796C9.73032 11.0402 10.7592 10.5628 11.5309 9.69761C12.3037 8.8349 12.7264 7.68756 12.7219 6.47095C12.7219 3.94328 10.8737 1.88915 8.60284 1.88915Z" fill="#5B259E"/>
</svg>
