<svg width="23" height="24" viewBox="0 0 23 24" fill="none" xmlns="http://www.w3.org/2000/svg">
<path fill-rule="evenodd" clip-rule="evenodd" d="M5.04649 0.000632347C6.25686 0.0181929 7.1194 0.998069 8.21058 2.23784C8.4804 2.54339 8.77189 2.87704 9.09805 3.22825C10.679 4.93748 10.2293 6.33178 9.86632 7.45097C9.47189 8.67201 9.13056 9.72564 11.1742 11.9336C13.2179 14.1415 14.192 13.7728 15.3211 13.3431C16.3581 12.9521 17.6455 12.4627 19.2297 14.172C19.5515 14.5197 19.8549 14.8311 20.1366 15.1202C21.2885 16.305 22.1987 17.2404 22.2141 18.5516C22.2258 19.6684 21.5973 20.8087 20.0456 22.4851L19.3586 21.9817L19.9405 22.594C19.597 22.9745 18.6835 23.9883 16.8945 24H16.862C14.1617 24 10.6411 21.6773 6.39773 17.094C2.13703 12.492 -0.0160723 8.6767 9.03204e-05 5.75346C0.00993402 3.8218 0.947244 2.83256 1.29941 2.46145L1.32947 2.42598L1.40235 2.34672C2.95731 0.666761 4.02574 -0.0239524 5.04649 0.000632347ZM5.0259 1.75668H5.01723C4.53063 1.75668 3.79164 2.2835 2.761 3.3651L2.55403 3.58469L2.55638 3.58415C2.55768 3.58415 2.5387 3.60606 2.50856 3.63927L2.4361 3.71761C2.17387 3.99272 1.63099 4.56519 1.62552 5.76282C1.61691 7.43809 2.63657 10.5486 7.54634 15.8519C12.4323 21.1294 15.3071 22.2439 16.862 22.2439H16.8848C17.9933 22.2369 18.5221 21.6504 18.7767 21.3683C18.8537 21.2828 18.9165 21.2184 18.9609 21.1798C20.0413 20.0056 20.5939 19.1334 20.5885 18.5726C20.582 18.0013 19.9243 17.327 19.0151 16.3916C18.7258 16.0954 18.4116 15.7711 18.08 15.4129C17.2196 14.4869 16.7959 14.6449 15.8586 15.0008C14.5637 15.4913 12.7899 16.1633 10.0256 13.1745C7.26027 10.1881 7.88009 8.27163 8.33195 6.87148C8.65919 5.85999 8.80873 5.3999 7.94944 4.47037C7.61352 4.10745 7.3112 3.76326 7.03272 3.44718C6.17234 2.47081 5.55144 1.76488 5.0259 1.75668ZM14.3536 4.1654C16.6086 4.63836 18.3499 6.51851 18.7888 8.95591C18.8744 9.43355 18.5872 9.89364 18.1473 9.98613C18.0942 9.99666 18.0422 10.0025 17.9901 10.0025C17.6087 10.0025 17.2696 9.71218 17.1937 9.29307C16.8816 7.56043 15.6452 6.22466 14.0437 5.88867C13.6027 5.79619 13.3155 5.3361 13.4011 4.85963C13.4867 4.38315 13.9202 4.07174 14.3536 4.1654ZM14.2887 0.00730534C18.7076 0.537633 22.1393 4.24056 22.6345 9.01351C22.6844 9.49584 22.3636 9.93017 21.9183 9.98402C21.8879 9.98753 21.8565 9.98987 21.8262 9.98987C21.4177 9.98987 21.0666 9.65856 21.02 9.21018C20.6093 5.2579 17.7681 2.19066 14.1088 1.75165C13.6635 1.6978 13.3416 1.26464 13.3915 0.782309C13.4402 0.301151 13.8379 -0.0535711 14.2887 0.00730534Z" fill="#5B259E"/>
</svg>
