<svg width="16" height="18" viewBox="0 0 16 18" fill="none" xmlns="http://www.w3.org/2000/svg">
<path d="M12 9H4V11.25H12V9ZM15.7083 3.69141L11.6292 0.246094C11.4417 0.0878906 11.1875 0 10.9208 0H10.6667V4.5H16V4.28555C16 4.06406 15.8958 3.84961 15.7083 3.69141ZM9.33333 4.78125V0H1C0.445833 0 0 0.376172 0 0.84375V17.1562C0 17.6238 0.445833 18 1 18H15C15.5542 18 16 17.6238 16 17.1562V5.625H10.3333C9.78333 5.625 9.33333 5.24531 9.33333 4.78125ZM2.66667 2.53125C2.66667 2.37586 2.81583 2.25 3 2.25H6.33333C6.5175 2.25 6.66667 2.37586 6.66667 2.53125V3.09375C6.66667 3.24914 6.5175 3.375 6.33333 3.375H3C2.81583 3.375 2.66667 3.24914 2.66667 3.09375V2.53125ZM2.66667 4.78125C2.66667 4.62586 2.81583 4.5 3 4.5H6.33333C6.5175 4.5 6.66667 4.62586 6.66667 4.78125V5.34375C6.66667 5.49914 6.5175 5.625 6.33333 5.625H3C2.81583 5.625 2.66667 5.49914 2.66667 5.34375V4.78125ZM13.3333 15.4688C13.3333 15.6241 13.1842 15.75 13 15.75H9.66667C9.4825 15.75 9.33333 15.6241 9.33333 15.4688V14.9062C9.33333 14.7509 9.4825 14.625 9.66667 14.625H13C13.1842 14.625 13.3333 14.7509 13.3333 14.9062V15.4688ZM13.3333 8.4375V11.8125C13.3333 12.1233 13.035 12.375 12.6667 12.375H3.33333C2.965 12.375 2.66667 12.1233 2.66667 11.8125V8.4375C2.66667 8.12672 2.965 7.875 3.33333 7.875H12.6667C13.035 7.875 13.3333 8.12672 13.3333 8.4375Z" fill="#9A6DB8"/>
</svg>
