<svg width="20" height="22" viewBox="0 0 20 22" fill="none" xmlns="http://www.w3.org/2000/svg">
<path d="M6.88462 20.6507V17.2872C6.88462 16.4286 7.54602 15.7326 8.36189 15.7326H11.3443C11.7361 15.7326 12.1118 15.8964 12.3889 16.1879C12.6659 16.4795 12.8216 16.8749 12.8216 17.2872V20.6507C12.8191 21.0077 12.9521 21.3509 13.1911 21.6042C13.4301 21.8576 13.7552 22 14.0944 22H16.1292C17.0795 22.0026 17.9917 21.6072 18.6645 20.9009C19.3373 20.1947 19.7155 19.2357 19.7155 18.2356V8.65356C19.7155 7.84572 19.3752 7.07944 18.7864 6.56115L11.8646 0.743457C10.6605 -0.276583 8.93538 -0.243648 7.76727 0.821678L1.00343 6.56115C0.386777 7.06416 0.0182133 7.83272 0 8.65356V18.2259C0 20.3103 1.60565 22 3.58632 22H5.57459C6.2791 22 6.85164 21.4019 6.85675 20.6605L6.88462 20.6507Z" fill="#5B259E"/>
</svg>
