<svg width="19" height="24" viewBox="0 0 19 24" fill="none" xmlns="http://www.w3.org/2000/svg">
<path fill-rule="evenodd" clip-rule="evenodd" d="M7.33473 21.3276C7.85347 21.9717 8.51942 22.3256 9.21041 22.3256H9.21141C9.90541 22.3256 10.5744 21.9717 11.0941 21.3265C11.3725 20.9838 11.8472 20.9559 12.1546 21.2651C12.4631 21.5743 12.4881 22.1046 12.2107 22.4473C11.4015 23.4486 10.337 24 9.21141 24H9.20941C8.0868 23.9989 7.02428 23.4474 6.21813 22.4461C5.94073 22.1034 5.96577 21.5732 6.27421 21.2651C6.58265 20.9548 7.05733 20.9827 7.33473 21.3276ZM9.26028 0C13.7117 0 16.7019 3.86456 16.7019 7.47349C16.7019 9.32986 17.1255 10.1168 17.5752 10.9518C18.0198 11.7756 18.5235 12.7111 18.5235 14.4793C18.174 18.9968 13.943 19.3652 9.26028 19.3652C4.57758 19.3652 0.345521 18.9968 1.32553e-05 14.5507C-0.00297767 12.7111 0.500743 11.7756 0.94538 10.9518L1.10235 10.6573C1.48883 9.91687 1.81863 9.11146 1.81863 7.47349C1.81863 3.86456 4.80891 0 9.26028 0ZM9.26028 1.67442C5.76027 1.67442 3.32078 4.73079 3.32078 7.47349C3.32078 9.79423 2.74295 10.867 2.23222 11.8136C1.82264 12.5738 1.49917 13.1743 1.49917 14.4793C1.66641 16.5846 2.9132 17.6908 9.26028 17.6908C15.5723 17.6908 16.8582 16.5354 17.0244 14.4067C17.0214 13.1743 16.6979 12.5738 16.2883 11.8136C15.7776 10.867 15.1998 9.79423 15.1998 7.47349C15.1998 4.73079 12.7603 1.67442 9.26028 1.67442Z" fill="#5B259E"/>
</svg>
