<svg width="18" height="24" viewBox="0 0 18 24" fill="none" xmlns="http://www.w3.org/2000/svg">
<path fill-rule="evenodd" clip-rule="evenodd" d="M11.2598 0C11.3039 0 11.3472 0.0043865 11.3893 0.0128094L11.528 0.0137727C11.7373 0.0137727 11.9373 0.114048 12.083 0.291643L17.2807 6.66695C17.4171 6.83488 17.4942 7.0608 17.4942 7.29397V18.3967C17.5105 21.4279 15.5037 23.8913 12.9254 24H4.57384C2.0702 23.9366 0.0622811 21.5543 0.00037517 18.6362L0 5.42499C0.0605331 2.42762 2.16175 0.0137727 4.68773 0.0137727L11.1302 0.0128094C11.1723 0.0043865 11.2156 0 11.2598 0ZM10.4897 1.82549L4.6908 1.82597C2.99075 1.82597 1.57899 3.44728 1.53898 5.44674V18.3967C1.50204 20.4517 2.87686 22.1431 4.60565 22.1878H12.8987C14.6111 22.1153 15.9664 20.4517 15.9552 18.4027L15.9551 8.43638L13.8945 8.43759C12.0159 8.43154 10.4903 6.62901 10.4903 4.42055L10.4897 1.82549ZM8.35193 8.64889C8.56431 8.64889 8.75668 8.75037 8.89596 8.91437L8.89704 8.91516L11.304 11.7615C11.6036 12.1167 11.6026 12.6894 11.3019 13.0421C11.0003 13.3949 10.513 13.3949 10.2134 13.0397L9.12101 11.7479L9.12142 16.8533C9.12142 17.3535 8.77669 17.7594 8.35193 17.7594C7.92717 17.7594 7.58244 17.3535 7.58244 16.8533L7.58203 11.7479L6.4911 13.0397C6.34131 13.2185 6.14329 13.3067 5.9463 13.3067C5.75034 13.3067 5.55335 13.2185 5.40356 13.0421C5.10294 12.6894 5.10089 12.1167 5.4015 11.7615L7.80641 8.91516L7.84073 8.8779C7.85558 8.86235 7.87093 8.84747 7.88677 8.83329L7.80641 8.91516C7.83503 8.88134 7.86583 8.85087 7.89839 8.82375C8.02509 8.71377 8.18212 8.64889 8.35193 8.64889ZM12.0287 2.84152L12.0293 4.42055C12.0293 5.63351 12.8665 6.62176 13.8966 6.62539L15.1117 6.62418L12.0287 2.84152Z" fill="#5B259E"/>
</svg>
