<svg width="20" height="21" viewBox="0 0 20 21" fill="none" xmlns="http://www.w3.org/2000/svg">
<path d="M15.8065 2.20763C18.3468 4.04392 20 7.04727 20 10.4464C20 16.0288 15.5323 20.5542 10.0202 20.5664C4.51613 20.5787 0.00807187 16.0369 7.35953e-06 10.4628C-0.0040249 7.06359 1.6492 4.05208 4.18549 2.21171C4.65726 1.87302 5.31452 2.01584 5.59678 2.52592L6.23388 3.67258C6.47178 4.10105 6.35888 4.64377 5.96775 4.93758C4.29436 6.19442 3.22581 8.18577 3.22581 10.4424C3.22178 14.2088 6.22984 17.3019 10 17.3019C13.6936 17.3019 16.7984 14.2741 16.7742 10.4016C16.7621 8.28779 15.7782 6.24747 14.0282 4.9335C13.6371 4.63969 13.5282 4.09697 13.7661 3.67258L14.4032 2.52592C14.6855 2.01992 15.3387 1.86893 15.8065 2.20763ZM11.6129 10.7729V0.979354C11.6129 0.436629 11.1815 0 10.6452 0H9.35484C8.81855 0 8.3871 0.436629 8.3871 0.979354V10.7729C8.3871 11.3156 8.81855 11.7523 9.35484 11.7523H10.6452C11.1815 11.7523 11.6129 11.3156 11.6129 10.7729Z" fill="#F71B1B"/>
</svg>
